<svg width="486" height="914" viewBox="0 0 486 914" fill="none" xmlns="http://www.w3.org/2000/svg">
<path d="M0 0H486V810.484C486 810.484 423.55 757.258 382.154 761.111C272.163 771.349 218.247 953.423 100.582 906.193C55.3352 888.031 0 810.484 0 810.484V0Z" fill="#FC4746"/>
<g opacity="0.34">
<g clip-path="url(#clip0_2_1012)">
<path d="M28.7531 317.417L18.3926 313.513C18.2399 313.455 18.0712 313.462 17.9235 313.532C17.7758 313.601 17.6612 313.728 17.6049 313.884L13.7874 324.48C13.7311 324.636 13.7378 324.809 13.806 324.96C13.8742 325.111 13.9982 325.228 14.1509 325.286L24.5113 329.19C24.664 329.248 24.8327 329.241 24.9805 329.171C25.1282 329.101 25.2428 328.974 25.299 328.818L29.1166 318.222C29.1728 318.066 29.1661 317.894 29.0979 317.743C29.0298 317.592 28.9057 317.474 28.7531 317.417ZM24.3599 327.796L15.1506 324.325L18.544 314.907L27.7533 318.377L24.3599 327.796Z" fill="#FF9F90"/>
</g>
<path d="M450.307 250.591L451.804 227.208L470.542 240.694L450.307 250.591ZM468.399 240.496L452.752 229.235L451.502 248.761L468.399 240.496Z" fill="#FF9F90"/>
<g clip-path="url(#clip1_2_1012)">
<path d="M296.009 432.04L299.022 431.035L299.678 433.089L296.664 434.094L297.647 437.176L295.639 437.846L294.656 434.764L291.643 435.77L290.987 433.715L294.001 432.71L293.018 429.629L295.026 428.959L296.009 432.04ZM297.604 444.009L296.621 440.928L298.63 440.258L300.268 445.393L284.198 450.754L279.94 437.401L287.974 434.72L288.63 436.775L282.603 438.785L285.552 448.03L297.604 444.009Z" fill="#1EA7F3"/>
</g>
<path d="M269.224 253.388C269.224 259.106 264.706 263.644 259.251 263.644C253.796 263.644 249.279 259.106 249.279 253.388C249.279 247.671 253.796 243.132 259.251 243.132C264.706 243.132 269.224 247.671 269.224 253.388Z" stroke="#FFE600" stroke-opacity="0.87" stroke-width="5"/>
<path d="M67.2658 225.289L68.6864 222.415L65.791 220.918L65.2837 221.945L58.6657 218.523L59.1731 217.497L56.2777 216L54.8571 218.874L55.8912 219.409L52.6441 225.978L51.6101 225.443L50.1895 228.317L53.0848 229.814L53.5922 228.788L60.2101 232.209L59.7028 233.236L62.5981 234.733L64.0187 231.859L62.9847 231.324L66.2317 224.755L67.2658 225.289ZM66.2124 222.167L67.4532 222.809L66.8444 224.04L65.6035 223.399L66.2124 222.167ZM56.0902 218.481L56.6991 217.249L57.9399 217.89L57.3311 219.122L56.0902 218.481ZM52.6635 228.565L51.4226 227.924L52.0314 226.692L53.2723 227.334L52.6635 228.565ZM62.7856 232.252L62.1768 233.484L60.9359 232.842L61.5447 231.611L62.7856 232.252ZM62.5633 230.075L62.1574 230.896L61.1234 230.362L60.616 231.388L53.9981 227.967L54.5054 226.94L53.4714 226.406L56.7184 219.836L57.7525 220.371L58.2598 219.345L64.8778 222.766L64.3704 223.792L65.4045 224.327L62.5633 230.075Z" fill="#FF9F90"/>
<path d="M60.0508 223.055L56.8937 225.926L57.6663 226.325L58.2748 225.772L59.808 226.564L59.7331 227.394L60.5057 227.793L60.8942 223.491L60.0508 223.055ZM58.9213 225.183L60.0231 224.182L59.8877 225.683L58.9213 225.183Z" fill="#FFE600"/>
</g>
<defs>
<clipPath id="clip0_2_1012">
<rect width="14.7623" height="15.0169" fill="white" transform="matrix(0.93576 0.352637 -0.338956 0.940802 17.0901 311.685)"/>
</clipPath>
<clipPath id="clip1_2_1012">
<rect width="25.4103" height="25.8757" fill="white" transform="matrix(0.948612 -0.316441 0.303844 0.952722 274.961 432.243)"/>
</clipPath>
</defs>
</svg>
