<svg width="1636" height="1204" viewBox="0 0 1636 1204" fill="none" xmlns="http://www.w3.org/2000/svg">
<path d="M0 0H1638V1067C1638 1067 1427.52 996.927 1288 1002C917.288 1015.48 735.572 1255.18 339 1193C186.5 1169.09 0 1067 0 1067V0Z" fill="#FC4746"/>
<g opacity="0.34">
<g clip-path="url(#clip0_2_53)">
<path d="M270.699 476.593L245.928 467.257C245.563 467.12 245.159 467.136 244.806 467.303C244.453 467.47 244.179 467.773 244.044 468.146L234.917 493.481C234.782 493.854 234.798 494.267 234.961 494.628C235.124 494.989 235.421 495.27 235.786 495.407L260.557 504.742C260.922 504.88 261.326 504.864 261.679 504.697C262.032 504.53 262.306 504.227 262.441 503.854L271.569 478.519C271.703 478.145 271.687 477.733 271.524 477.372C271.361 477.01 271.064 476.73 270.699 476.593ZM260.195 501.409L238.176 493.111L246.29 470.591L268.309 478.889L260.195 501.409Z" fill="#FF9F90"/>
</g>
<path d="M1322.1 293.129L1322.87 292.756L1322.18 292.264L1284.77 265.338L1284.04 264.815L1283.98 265.723L1281 312.409L1280.94 313.262L1281.7 312.889L1322.1 293.129ZM1326.04 293.067L1279.18 315.986L1282.65 261.838L1326.04 293.067Z" fill="#FF9F90" stroke="#FF9F90"/>
<g clip-path="url(#clip1_2_53)">
<path d="M909.707 750.657L916.912 748.253L918.478 753.165L911.274 755.569L913.624 762.936L908.821 764.539L906.471 757.171L899.267 759.574L897.7 754.662L904.905 752.259L902.555 744.891L907.358 743.289L909.707 750.657ZM913.521 779.275L911.171 771.907L915.974 770.304L919.89 782.584L881.467 795.402L871.285 763.474L890.496 757.065L892.063 761.977L877.654 766.784L884.704 788.887L913.521 779.275Z" fill="#1EA7F3"/>
</g>
<path d="M849.142 323.5C849.142 339.017 836.857 351.5 821.82 351.5C806.783 351.5 794.498 339.017 794.498 323.5C794.498 307.983 806.783 295.5 821.82 295.5C836.857 295.5 849.142 307.983 849.142 323.5Z" stroke="#FF9F90" stroke-width="5"/>
<path d="M362.783 256.316L366.18 249.444L359.257 245.865L358.044 248.319L342.22 240.138L343.433 237.684L336.511 234.105L333.114 240.977L335.586 242.255L327.823 257.962L325.35 256.684L321.954 263.556L328.876 267.135L330.09 264.681L345.913 272.861L344.7 275.316L351.623 278.895L355.019 272.023L352.547 270.745L360.311 255.038L362.783 256.316ZM360.264 248.851L363.231 250.385L361.776 253.33L358.809 251.796L360.264 248.851ZM336.062 240.036L337.518 237.091L340.485 238.625L339.029 241.57L336.062 240.036ZM327.869 264.149L324.902 262.615L326.358 259.67L329.325 261.204L327.869 264.149ZM352.071 272.964L350.615 275.909L347.648 274.375L349.104 271.43L352.071 272.964ZM351.539 267.759L350.569 269.722L348.097 268.444L346.883 270.898L331.06 262.717L332.273 260.263L329.801 258.985L337.564 243.278L340.037 244.556L341.25 242.102L357.073 250.282L355.86 252.737L358.333 254.015L351.539 267.759Z" fill="#FF9F90"/>
<path d="M345.532 250.973L337.984 257.837L339.831 258.792L341.286 257.469L344.952 259.365L344.773 261.347L346.62 262.302L347.549 252.016L345.532 250.973ZM342.832 256.062L345.466 253.667L345.142 257.257L342.832 256.062Z" fill="#FF9F90"/>
</g>
<defs>
<clipPath id="clip0_2_53">
<rect width="35.2966" height="35.9053" fill="white" transform="matrix(0.93576 0.352637 -0.338956 0.940802 242.813 462.886)"/>
</clipPath>
<clipPath id="clip1_2_53">
<rect width="60.7561" height="61.8688" fill="white" transform="matrix(0.948612 -0.316441 0.303844 0.952722 859.381 751.141)"/>
</clipPath>
</defs>
</svg>
