<svg width="34" height="33" viewBox="0 0 34 33" fill="none" xmlns="http://www.w3.org/2000/svg">
<path d="M31.7304 0.111328H2.27131C1.56285 0.111328 0.990479 0.683699 0.990479 1.39216V30.8513C0.990479 31.5597 1.56285 32.1321 2.27131 32.1321H31.7304C32.4389 32.1321 33.0113 31.5597 33.0113 30.8513V1.39216C33.0113 0.683699 32.4389 0.111328 31.7304 0.111328ZM28.032 9.45739H25.4744C23.4691 9.45739 23.0808 10.41 23.0808 11.8109V14.8969H27.8679L27.2435 19.7281H23.0808V32.1321H18.0896V19.7321H13.9149V14.8969H18.0896V11.3346C18.0896 7.19993 20.6152 4.94647 24.3056 4.94647C26.0748 4.94647 27.5917 5.07855 28.036 5.13859V9.45739H28.032Z" fill="white"/>
</svg>
