<svg width="20" height="20" viewBox="0 0 20 20" fill="none" xmlns="http://www.w3.org/2000/svg">
<path d="M10.0001 18.3333C5.39758 18.3333 1.66675 14.6025 1.66675 10C1.66675 5.39751 5.39758 1.66667 10.0001 1.66667C14.6026 1.66667 18.3334 5.39751 18.3334 10C18.3334 14.6025 14.6026 18.3333 10.0001 18.3333ZM10.0001 16.6667C11.7682 16.6667 13.4639 15.9643 14.7141 14.7141C15.9644 13.4638 16.6667 11.7681 16.6667 10C16.6667 8.2319 15.9644 6.5362 14.7141 5.28596C13.4639 4.03572 11.7682 3.33334 10.0001 3.33334C8.23197 3.33334 6.53628 4.03572 5.28604 5.28596C4.03579 6.5362 3.33341 8.2319 3.33341 10C3.33341 11.7681 4.03579 13.4638 5.28604 14.7141C6.53628 15.9643 8.23197 16.6667 10.0001 16.6667ZM9.16675 12.5H10.8334V14.1667H9.16675V12.5ZM10.8334 11.1292V11.6667H9.16675V10.4167C9.16675 10.1957 9.25455 9.9837 9.41083 9.82742C9.56711 9.67114 9.77907 9.58334 10.0001 9.58334C10.2368 9.58332 10.4687 9.51609 10.6687 9.38945C10.8687 9.26281 11.0286 9.08198 11.1299 8.86799C11.2311 8.65401 11.2696 8.41567 11.2407 8.18071C11.2117 7.94575 11.1167 7.72383 10.9666 7.54076C10.8165 7.3577 10.6175 7.22103 10.3928 7.14665C10.168 7.07226 9.92678 7.06323 9.6971 7.12059C9.46743 7.17796 9.25876 7.29936 9.09539 7.47069C8.93201 7.64201 8.82065 7.8562 8.77425 8.08834L7.13925 7.76084C7.24061 7.25424 7.47467 6.78365 7.81752 6.39716C8.16036 6.01067 8.59968 5.72216 9.09057 5.56111C9.58147 5.40005 10.1063 5.37224 10.6115 5.48052C11.1166 5.58879 11.584 5.82927 11.9658 6.17736C12.3475 6.52545 12.63 6.96868 12.7843 7.46172C12.9387 7.95477 12.9593 8.47996 12.8441 8.9836C12.729 9.48723 12.4821 9.95125 12.1288 10.3282C11.7756 10.7052 11.3285 10.9816 10.8334 11.1292Z" fill="#718096"/>
</svg>
