<svg width="45" height="50" viewBox="0 0 45 50" fill="none" xmlns="http://www.w3.org/2000/svg">
<path d="M33.775 15.5C31.315 15.5 28.9917 16.4889 27.3346 18.2017L15.325 29.2203C14.2317 30.3504 12.7796 30.9684 11.225 30.9684C8.03042 30.9684 5.41667 28.3021 5.41667 25C5.41667 21.698 8.03042 19.0316 11.225 19.0316C12.7796 19.0316 14.2317 19.6497 15.3933 20.8504L17.3238 22.6162L19.9375 20.25L17.7508 18.29C16.8953 17.4024 15.8782 16.6988 14.7581 16.2199C13.6379 15.7411 12.4371 15.4964 11.225 15.5C6.13417 15.5 2 19.7733 2 25C2 30.2268 6.13417 34.5 11.225 34.5C13.685 34.5 16.0083 33.5112 17.6654 31.7983L29.675 20.7798C30.7683 19.6497 32.2204 19.0316 33.775 19.0316C36.9696 19.0316 39.5833 21.698 39.5833 25C39.5833 28.3021 36.9696 30.9684 33.775 30.9684C32.2375 30.9684 30.7683 30.3504 29.6067 29.1496L27.625 27.3662L25.0625 29.7324L27.2492 31.71C28.107 32.5932 29.125 33.2927 30.2448 33.7684C31.3646 34.2442 32.5643 34.4868 33.775 34.4823C38.8658 34.4823 43 30.2268 43 25C43 19.7026 38.8658 15.5 33.775 15.5Z" fill="#FC4746"/>
</svg>
