<svg width="33" height="33" viewBox="0 0 33 33" fill="none" xmlns="http://www.w3.org/2000/svg">
<path d="M31.7182 0.111328H2.2591C1.55064 0.111328 0.978271 0.683699 0.978271 1.39216V30.8513C0.978271 31.5597 1.55064 32.1321 2.2591 32.1321H31.7182C32.4267 32.1321 32.9991 31.5597 32.9991 30.8513V1.39216C32.9991 0.683699 32.4267 0.111328 31.7182 0.111328ZM10.4764 27.397H5.72535V12.1151H10.4764V27.397ZM8.10289 10.0258C7.55825 10.0258 7.02583 9.86425 6.57297 9.56166C6.12011 9.25907 5.76715 8.82899 5.55873 8.3258C5.3503 7.82261 5.29577 7.26892 5.40202 6.73474C5.50828 6.20055 5.77055 5.70988 6.15567 5.32475C6.5408 4.93963 7.03148 4.67736 7.56566 4.5711C8.09984 4.46485 8.65353 4.51938 9.15672 4.72781C9.65991 4.93623 10.09 5.28919 10.3926 5.74205C10.6952 6.19491 10.8567 6.72733 10.8567 7.27197C10.8527 8.79296 9.61988 10.0258 8.10289 10.0258ZM28.264 27.397H23.5169V19.9642C23.5169 18.1911 23.4849 15.9136 21.0473 15.9136C18.5777 15.9136 18.1974 17.8428 18.1974 19.8361V27.397H13.4544V12.1151H18.0093V14.2045H18.0734C18.7058 13.0037 20.2548 11.7349 22.5683 11.7349C27.3794 11.7349 28.264 14.9009 28.264 19.0156V27.397Z" fill="white"/>
</svg>
