<svg width="41" height="72" viewBox="0 0 41 72" fill="none" xmlns="http://www.w3.org/2000/svg">
<path d="M37.2327 26.2802C36.5695 25.4327 35.5375 24.9168 34.469 24.9168H12.0279L11.3278 22.1899C10.9224 20.6055 9.52208 19.5 7.90092 19.5H4.14225C3.51585 19.5 3 20.0159 3 20.6423C3 21.2687 3.51587 21.7845 4.14225 21.7845H7.90092C8.45355 21.7845 8.93269 22.1531 9.08022 22.7057L13.5758 40.6144C13.9812 42.1987 15.3815 43.3043 17.0026 43.3043H31.7054C33.3268 43.3043 34.7639 42.1987 35.1322 40.6144L37.8959 29.2649C38.1537 28.2331 37.9327 27.1278 37.2325 26.2802H37.2327ZM35.6483 28.749L32.8846 40.0985C32.7373 40.6512 32.2582 41.0198 31.7053 41.0198H17.0026C16.4499 41.0198 15.9708 40.6512 15.8233 40.0985L12.6175 27.2382H34.4689C34.8375 27.2382 35.2059 27.4225 35.427 27.7173C35.6483 28.0122 35.7588 28.3808 35.6483 28.7491L35.6483 28.749Z" fill="#FC4746"/>
<path d="M17.7764 44.7781C15.6759 44.7781 13.9442 46.51 13.9442 48.6102C13.9442 50.7108 15.6761 52.4424 17.7764 52.4424C19.8769 52.4427 21.6088 50.7108 21.6088 48.6102C21.6088 46.51 19.8769 44.7781 17.7764 44.7781ZM17.7764 50.1211C16.9289 50.1211 16.2655 49.458 16.2655 48.6102C16.2655 47.7628 16.9287 47.0994 17.7764 47.0994C18.6238 47.0994 19.2873 47.7625 19.2873 48.6102C19.2873 49.4209 18.5871 50.1211 17.7764 50.1211Z" fill="#FC4746"/>
<path d="M30.4525 44.7781C28.3519 44.7781 26.6203 46.51 26.6203 48.6102C26.6203 50.7108 28.3522 52.4424 30.4525 52.4424C32.553 52.4424 34.2846 50.7105 34.2846 48.6102C34.2479 46.51 32.553 44.7781 30.4525 44.7781ZM30.4525 50.1211C29.605 50.1211 28.9416 49.458 28.9416 48.6102C28.9416 47.7628 29.6047 47.0994 30.4525 47.0994C31.2999 47.0994 31.9633 47.7625 31.9633 48.6102C31.9633 49.4209 31.2631 50.1211 30.4525 50.1211Z" fill="#FC4746"/>
</svg>
