<svg width="41" height="54" viewBox="0 0 41 54" fill="none" xmlns="http://www.w3.org/2000/svg">
<path d="M15.4936 23.412C15.1483 23.4527 14.8464 23.575 14.6305 23.8198L11.3937 27.4486L9.92641 25.8178C9.49471 25.3286 8.67498 25.247 8.11378 25.6549C7.59567 26.1438 7.55263 26.9184 7.98433 27.4079L10.4011 30.1397C10.66 30.4252 11.0053 30.5882 11.3936 30.5882C11.782 30.5882 12.1273 30.4252 12.3862 30.1397L16.6156 25.41C16.8314 25.1654 16.9609 24.8392 16.9179 24.513C16.8748 24.1868 16.7454 23.9015 16.4861 23.6976C16.1842 23.4937 15.8389 23.4121 15.4936 23.4121L15.4936 23.412Z" fill="#FC4746"/>
<path d="M30.9442 17.5H10.0558C4.53158 17.5 0 21.7405 0 27C0 32.2595 4.53166 36.5 10.0558 36.5H30.9442C36.4684 36.5 41 32.2595 41 27C41 21.7405 36.4683 17.5 30.9442 17.5ZM10.0558 33.9721C5.99887 33.9721 2.67564 30.8325 2.67564 26.9999C2.67564 23.1672 5.99887 20.0276 10.0558 20.0276H24.0821C22.0967 21.7807 20.8453 24.2272 20.8453 26.9999C20.8453 29.7316 22.0967 32.2187 24.0821 33.9721H10.0558ZM30.9442 33.9721C26.8873 33.9721 23.5641 30.8325 23.5641 26.9999C23.5641 23.1672 26.8873 20.0276 30.9442 20.0276C35.0011 20.0276 38.281 23.1672 38.281 26.9999C38.281 30.8325 35.001 33.9721 30.9442 33.9721Z" fill="#FC4746"/>
</svg>
