<svg width="34" height="28" viewBox="0 0 34 28" fill="none" xmlns="http://www.w3.org/2000/svg">
<path d="M33.6651 3.80712C32.4403 4.33546 31.1074 4.71571 29.7346 4.86381C31.1599 4.017 32.2273 2.67919 32.7365 1.10136C31.399 1.89704 29.9337 2.45498 28.4057 2.75043C27.7671 2.0677 26.9947 1.5238 26.1366 1.15263C25.2786 0.781457 24.3533 0.590969 23.4185 0.593034C19.636 0.593034 16.594 3.65902 16.594 7.42146C16.594 7.94981 16.6581 8.47815 16.7621 8.98648C11.0985 8.69029 6.04719 5.98453 2.68901 1.84184C2.07711 2.88698 1.75646 4.077 1.76041 5.28808C1.76041 7.65762 2.96519 9.74697 4.80238 10.9758C3.71969 10.9331 2.66236 10.6355 1.71638 10.1072V10.1913C1.71638 13.5094 4.0619 16.2592 7.18793 16.8916C6.60098 17.0441 5.99718 17.1221 5.39076 17.1238C4.94647 17.1238 4.5262 17.0797 4.10192 17.0197C4.96649 19.7255 7.48412 21.6907 10.4821 21.7548C8.13654 23.592 5.19864 24.6727 2.00857 24.6727C1.4362 24.6727 0.907853 24.6526 0.359497 24.5886C3.38546 26.5299 6.97579 27.6506 10.8423 27.6506C23.3944 27.6506 30.2629 17.2518 30.2629 8.22599C30.2629 7.9298 30.2629 7.6336 30.2429 7.33741C31.5717 6.36478 32.7365 5.16 33.6651 3.80712Z" fill="white"/>
</svg>
